<?xml version="1.0" standalone="no"?><svg xmlns:xlink="http://www.w3.org/1999/xlink" xmlns="http://www.w3.org/2000/svg" viewBox="0 0 2000 1047.6278382868747" preserveAspectRatio="xMaxYMax slice"><g transform="scale(1.5383668697310935)"><rect x="0" y="0" width="1300.090909090909" height="681" fill="#000000"/><path d="M 6.19 55.72 A 49.53 49.53 0 0 1  55.72 6.19 L 6.19 55.72 A 49.53 49.53 0 0 0 55.72 6.19" fill="#911e3a"/><path d="M 68.1 55.72 A 49.53 49.53 0 0 1  117.63 6.19 L 68.1 55.72 A 49.53 49.53 0 0 0 117.63 6.19" fill="#050d2f"/><path d="M 253.83 55.72 A 49.53 49.53 0 0 1  303.36 6.19 L 253.83 55.72 A 49.53 49.53 0 0 0 303.36 6.19" fill="#112b9b"/><rect x="501.46363636363634" y="6.190909090909091" width="49.527272727272724" height="49.527272727272724" fill="#000000"/><path d="M 501.46 30.95 A 24.76 24.76 0 0 1  526.22 55.71 L 501.46 30.95 A 24.76 24.76 0 0 0 526.22 55.71" fill="#1332b1"/><path d="M 526.23 55.71 A 24.76 24.76 0 0 1  550.99 30.95 L 526.23 55.71 A 24.76 24.76 0 0 0 550.99 30.95" fill="#d12b53"/><path d="M 625.28 6.19 A 49.53 49.53 0 0 1  674.81 55.72 L 625.28 6.19 A 49.53 49.53 0 0 0 674.81 55.72" fill="#e02f59"/><rect x="934.8272727272728" y="6.190909090909091" width="49.527272727272724" height="49.527272727272724" fill="#000000"/><path d="M 959.59 30.95 A 24.76 24.76 0 0 1  984.35 55.71 L 959.59 30.95 A 24.76 24.76 0 0 0 984.35 55.71" fill="#03071a"/><path d="M 996.74 55.72 A 49.53 49.53 0 0 1  1046.27 6.19 L 996.74 55.72 A 49.53 49.53 0 0 0 1046.27 6.19" fill="#112da2"/><rect x="68.1" y="68.1" width="49.527272727272724" height="49.527272727272724" fill="#000000"/><path d="M 68.1 68.1 A 24.76 24.76 0 0 1  92.86 92.86 L 68.1 68.1 A 24.76 24.76 0 0 0 92.86 92.86" fill="#173cd7"/><path d="M 68.1 92.86 A 24.76 24.76 0 0 1  92.86 117.62 L 68.1 92.86 A 24.76 24.76 0 0 0 92.86 117.62" fill="#040a24"/><path d="M 253.83 117.63 A 49.53 49.53 0 0 1  303.36 68.1 L 253.83 117.63 A 49.53 49.53 0 0 0 303.36 68.1" fill="#f23260"/><path d="M 377.65 117.63 A 49.53 49.53 0 0 1  427.17999999999995 68.1 L 377.65 117.63 A 49.53 49.53 0 0 0 427.17999999999995 68.1" fill="#010206"/><rect x="563.3727272727273" y="68.1" width="49.527272727272724" height="49.527272727272724" fill="#000000"/><path d="M 563.37 92.86 A 24.76 24.76 0 0 1  588.13 117.62 L 563.37 92.86 A 24.76 24.76 0 0 0 588.13 117.62" fill="#030101"/><rect x="625.2818181818182" y="68.1" width="49.527272727272724" height="49.527272727272724" fill="#000000"/><path d="M 625.28 92.86 A 24.76 24.76 0 0 1  650.04 68.1 L 625.28 92.86 A 24.76 24.76 0 0 0 650.04 68.1" fill="#03091f"/><path d="M 650.05 68.1 A 24.76 24.76 0 0 1  674.81 92.86 L 650.05 68.1 A 24.76 24.76 0 0 0 674.81 92.86" fill="#020511"/><path d="M 625.28 117.62 A 24.76 24.76 0 0 1  650.04 92.86 L 625.28 117.62 A 24.76 24.76 0 0 0 650.04 92.86" fill="#ca2a50"/><path d="M 650.05 92.86 A 24.76 24.76 0 0 1  674.81 117.62 L 650.05 92.86 A 24.76 24.76 0 0 0 674.81 117.62" fill="#310a14"/><path d="M 687.19 68.1 A 49.53 49.53 0 0 1  736.72 117.63 L 687.19 68.1 A 49.53 49.53 0 0 0 736.72 117.63" fill="#122fa9"/><path d="M 749.1 68.1 A 49.53 49.53 0 0 1  798.63 117.63 L 749.1 68.1 A 49.53 49.53 0 0 0 798.63 117.63" fill="#030101"/><rect x="811.0090909090909" y="68.1" width="49.527272727272724" height="49.527272727272724" fill="#000000"/><path d="M 811.01 68.1 A 24.76 24.76 0 0 1  835.77 92.86 L 811.01 68.1 A 24.76 24.76 0 0 0 835.77 92.86" fill="#060103"/><path d="M 835.77 92.86 A 24.76 24.76 0 0 1  860.53 117.62 L 835.77 92.86 A 24.76 24.76 0 0 0 860.53 117.62" fill="#1435bc"/><path d="M 872.92 68.1 A 49.53 49.53 0 0 1  922.4499999999999 117.63 L 872.92 68.1 A 49.53 49.53 0 0 0 922.4499999999999 117.63" fill="#1331b0"/><path d="M 996.74 117.63 A 49.53 49.53 0 0 1  1046.27 68.1 L 996.74 117.63 A 49.53 49.53 0 0 0 1046.27 68.1" fill="#0b1c63"/><rect x="1120.5545454545454" y="68.1" width="49.527272727272724" height="49.527272727272724" fill="#000000"/><rect x="68.1" y="130.0090909090909" width="49.527272727272724" height="49.527272727272724" fill="#000000"/><path d="M 68.1 154.76999999999998 A 24.76 24.76 0 0 1  92.86 130.01 L 68.1 154.76999999999998 A 24.76 24.76 0 0 0 92.86 130.01" fill="#050e31"/><path d="M 92.86 154.77 A 24.76 24.76 0 0 1  117.62 179.53 L 92.86 154.77 A 24.76 24.76 0 0 0 117.62 179.53" fill="#0e0306"/><rect x="501.46363636363634" y="130.0090909090909" width="49.527272727272724" height="49.527272727272724" fill="#000000"/><path d="M 501.46 130.01 A 24.76 24.76 0 0 1  526.22 154.76999999999998 L 501.46 130.01 A 24.76 24.76 0 0 0 526.22 154.76999999999998" fill="#24070e"/><path d="M 501.46 179.53 A 24.76 24.76 0 0 1  526.22 154.77 L 501.46 179.53 A 24.76 24.76 0 0 0 526.22 154.77" fill="#dd2e57"/><path d="M 526.23 179.53 A 24.76 24.76 0 0 1  550.99 154.77 L 526.23 179.53 A 24.76 24.76 0 0 0 550.99 154.77" fill="#9e213e"/><path d="M 625.28 130.01 A 49.53 49.53 0 0 1  674.81 179.54 L 625.28 130.01 A 49.53 49.53 0 0 0 674.81 179.54" fill="#a52242"/><rect x="872.9181818181819" y="130.0090909090909" width="49.527272727272724" height="49.527272727272724" fill="#000000"/><path d="M 872.92 154.77 A 24.76 24.76 0 0 1  897.68 179.53 L 872.92 154.77 A 24.76 24.76 0 0 0 897.68 179.53" fill="#08164d"/><rect x="996.7363636363636" y="130.0090909090909" width="49.527272727272724" height="49.527272727272724" fill="#000000"/><path d="M 1021.5 179.53 A 24.76 24.76 0 0 1  1046.26 154.77 L 1021.5 179.53 A 24.76 24.76 0 0 0 1046.26 154.77" fill="#091857"/><rect x="253.8272727272727" y="191.9181818181818" width="49.527272727272724" height="49.527272727272724" fill="#000000"/><path d="M 253.83 216.67999999999998 A 24.76 24.76 0 0 1  278.59000000000003 191.92 L 253.83 216.67999999999998 A 24.76 24.76 0 0 0 278.59000000000003 191.92" fill="#e9305c"/><path d="M 278.59 216.67999999999998 A 24.76 24.76 0 0 1  303.34999999999997 191.92 L 278.59 216.67999999999998 A 24.76 24.76 0 0 0 303.34999999999997 191.92" fill="#0e2688"/><path d="M 278.59 241.44 A 24.76 24.76 0 0 1  303.34999999999997 216.68 L 278.59 241.44 A 24.76 24.76 0 0 0 303.34999999999997 216.68" fill="#07123f"/><path d="M 501.46 191.92 A 49.53 49.53 0 0 1  550.99 241.45 L 501.46 191.92 A 49.53 49.53 0 0 0 550.99 241.45" fill="#183edd"/><path d="M 625.28 241.45 A 49.53 49.53 0 0 1  674.81 191.92 L 625.28 241.45 A 49.53 49.53 0 0 0 674.81 191.92" fill="#040921"/><path d="M 687.19 191.92 A 49.53 49.53 0 0 1  736.72 241.45 L 687.19 191.92 A 49.53 49.53 0 0 0 736.72 241.45" fill="#4b101e"/><path d="M 811.01 241.45 A 49.53 49.53 0 0 1  860.54 191.92 L 811.01 241.45 A 49.53 49.53 0 0 0 860.54 191.92" fill="#150408"/><path d="M 1058.65 191.92 A 49.53 49.53 0 0 1  1108.18 241.45 L 1058.65 191.92 A 49.53 49.53 0 0 0 1108.18 241.45" fill="#591323"/><path d="M 6.19 303.36 A 49.53 49.53 0 0 1  55.72 253.83 L 6.19 303.36 A 49.53 49.53 0 0 0 55.72 253.83" fill="#6e172c"/><path d="M 253.83 253.83 A 49.53 49.53 0 0 1  303.36 303.36 L 253.83 253.83 A 49.53 49.53 0 0 0 303.36 303.36" fill="#050d2d"/><path d="M 687.19 253.83 A 49.53 49.53 0 0 1  736.72 303.36 L 687.19 253.83 A 49.53 49.53 0 0 0 736.72 303.36" fill="#0e2480"/><rect x="749.1" y="253.8272727272727" width="49.527272727272724" height="49.527272727272724" fill="#000000"/><rect x="934.8272727272728" y="253.8272727272727" width="49.527272727272724" height="49.527272727272724" fill="#000000"/><path d="M 934.83 253.83 A 24.76 24.76 0 0 1  959.59 278.59000000000003 L 934.83 253.83 A 24.76 24.76 0 0 0 959.59 278.59000000000003" fill="#1639ca"/><path d="M 996.74 303.36 A 49.53 49.53 0 0 1  1046.27 253.83 L 996.74 303.36 A 49.53 49.53 0 0 0 1046.27 253.83" fill="#c6294e"/><path d="M 1058.65 303.36 A 49.53 49.53 0 0 1  1108.18 253.83 L 1058.65 303.36 A 49.53 49.53 0 0 0 1108.18 253.83" fill="#020614"/><path d="M 1244.37 253.83 A 49.53 49.53 0 0 1  1293.8999999999999 303.36 L 1244.37 253.83 A 49.53 49.53 0 0 0 1293.8999999999999 303.36" fill="#6d172b"/><path d="M 6.19 315.74 A 49.53 49.53 0 0 1  55.72 365.27 L 6.19 315.74 A 49.53 49.53 0 0 0 55.72 365.27" fill="#0d2176"/><path d="M 130.01 315.74 A 49.53 49.53 0 0 1  179.54 365.27 L 130.01 315.74 A 49.53 49.53 0 0 0 179.54 365.27" fill="#c7294f"/><rect x="377.6454545454545" y="315.7363636363636" width="49.527272727272724" height="49.527272727272724" fill="#000000"/><path d="M 377.65 340.5 A 24.76 24.76 0 0 1  402.40999999999997 365.26 L 377.65 340.5 A 24.76 24.76 0 0 0 402.40999999999997 365.26" fill="#091753"/><path d="M 402.41 365.26 A 24.76 24.76 0 0 1  427.17 340.5 L 402.41 365.26 A 24.76 24.76 0 0 0 427.17 340.5" fill="#1434bb"/><rect x="439.55454545454546" y="315.7363636363636" width="49.527272727272724" height="49.527272727272724" fill="#000000"/><path d="M 439.55 340.5 A 24.76 24.76 0 0 1  464.31 365.26 L 439.55 340.5 A 24.76 24.76 0 0 0 464.31 365.26" fill="#ea315d"/><path d="M 501.46 315.74 A 49.53 49.53 0 0 1  550.99 365.27 L 501.46 315.74 A 49.53 49.53 0 0 0 550.99 365.27" fill="#d22c53"/><rect x="811.0090909090909" y="315.7363636363636" width="49.527272727272724" height="49.527272727272724" fill="#000000"/><path d="M 996.74 365.27 A 49.53 49.53 0 0 1  1046.27 315.74 L 996.74 365.27 A 49.53 49.53 0 0 0 1046.27 315.74" fill="#f23260"/><rect x="1058.6454545454546" y="315.7363636363636" width="49.527272727272724" height="49.527272727272724" fill="#000000"/><path d="M 68.1 427.17999999999995 A 49.53 49.53 0 0 1  117.63 377.65 L 68.1 427.17999999999995 A 49.53 49.53 0 0 0 117.63 377.65" fill="#08164d"/><path d="M 253.83 377.65 A 49.53 49.53 0 0 1  303.36 427.17999999999995 L 253.83 377.65 A 49.53 49.53 0 0 0 303.36 427.17999999999995" fill="#410e1a"/><rect x="377.6454545454545" y="377.6454545454545" width="49.527272727272724" height="49.527272727272724" fill="#000000"/><path d="M 377.65 402.40999999999997 A 24.76 24.76 0 0 1  402.40999999999997 377.65 L 377.65 402.40999999999997 A 24.76 24.76 0 0 0 402.40999999999997 377.65" fill="#621427"/><path d="M 402.41 402.40999999999997 A 24.76 24.76 0 0 1  427.17 377.65 L 402.41 402.40999999999997 A 24.76 24.76 0 0 0 427.17 377.65" fill="#112c9b"/><rect x="439.55454545454546" y="377.6454545454545" width="49.527272727272724" height="49.527272727272724" fill="#000000"/><path d="M 439.55 427.17 A 24.76 24.76 0 0 1  464.31 402.41 L 439.55 427.17 A 24.76 24.76 0 0 0 464.31 402.41" fill="#ca2a50"/><rect x="563.3727272727273" y="377.6454545454545" width="49.527272727272724" height="49.527272727272724" fill="#000000"/><path d="M 625.28 427.17999999999995 A 49.53 49.53 0 0 1  674.81 377.65 L 625.28 427.17999999999995 A 49.53 49.53 0 0 0 674.81 377.65" fill="#071241"/><path d="M 687.19 427.17999999999995 A 49.53 49.53 0 0 1  736.72 377.65 L 687.19 427.17999999999995 A 49.53 49.53 0 0 0 736.72 377.65" fill="#0f2689"/><rect x="872.9181818181819" y="377.6454545454545" width="49.527272727272724" height="49.527272727272724" fill="#000000"/><path d="M 996.74 377.65 A 49.53 49.53 0 0 1  1046.27 427.17999999999995 L 996.74 377.65 A 49.53 49.53 0 0 0 1046.27 427.17999999999995" fill="#b12546"/><rect x="315.7363636363636" y="439.55454545454546" width="49.527272727272724" height="49.527272727272724" fill="#000000"/><path d="M 340.5 464.31 A 24.76 24.76 0 0 1  365.26 439.55 L 340.5 464.31 A 24.76 24.76 0 0 0 365.26 439.55" fill="#1537c5"/><path d="M 340.5 489.08 A 24.76 24.76 0 0 1  365.26 464.32 L 340.5 489.08 A 24.76 24.76 0 0 0 365.26 464.32" fill="#0c1f70"/><path d="M 439.55 439.55 A 49.53 49.53 0 0 1  489.08000000000004 489.08000000000004 L 439.55 439.55 A 49.53 49.53 0 0 0 489.08000000000004 489.08000000000004" fill="#0f288f"/><path d="M 501.46 439.55 A 49.53 49.53 0 0 1  550.99 489.08000000000004 L 501.46 439.55 A 49.53 49.53 0 0 0 550.99 489.08000000000004" fill="#0b0204"/><path d="M 687.19 489.08000000000004 A 49.53 49.53 0 0 1  736.72 439.55 L 687.19 489.08000000000004 A 49.53 49.53 0 0 0 736.72 439.55" fill="#de2e58"/><rect x="934.8272727272728" y="439.55454545454546" width="49.527272727272724" height="49.527272727272724" fill="#000000"/><path d="M 959.59 489.08 A 24.76 24.76 0 0 1  984.35 464.32 L 959.59 489.08 A 24.76 24.76 0 0 0 984.35 464.32" fill="#0a195a"/><path d="M 1244.37 489.08000000000004 A 49.53 49.53 0 0 1  1293.8999999999999 439.55 L 1244.37 489.08000000000004 A 49.53 49.53 0 0 0 1293.8999999999999 439.55" fill="#380c16"/><path d="M 6.19 501.46 A 49.53 49.53 0 0 1  55.72 550.99 L 6.19 501.46 A 49.53 49.53 0 0 0 55.72 550.99" fill="#841b34"/><path d="M 191.92 550.99 A 49.53 49.53 0 0 1  241.45 501.46 L 191.92 550.99 A 49.53 49.53 0 0 0 241.45 501.46" fill="#74182e"/><path d="M 439.55 501.46 A 49.53 49.53 0 0 1  489.08000000000004 550.99 L 439.55 501.46 A 49.53 49.53 0 0 0 489.08000000000004 550.99" fill="#71172d"/><rect x="749.1" y="501.46363636363634" width="49.527272727272724" height="49.527272727272724" fill="#000000"/><rect x="1120.5545454545454" y="501.46363636363634" width="49.527272727272724" height="49.527272727272724" fill="#000000"/><path d="M 1145.32 526.23 A 24.76 24.76 0 0 1  1170.08 550.99 L 1145.32 526.23 A 24.76 24.76 0 0 0 1170.08 550.99" fill="#173dd9"/><path d="M 1244.37 501.46 A 49.53 49.53 0 0 1  1293.8999999999999 550.99 L 1244.37 501.46 A 49.53 49.53 0 0 0 1293.8999999999999 550.99" fill="#71172d"/><path d="M 6.19 612.9 A 49.53 49.53 0 0 1  55.72 563.37 L 6.19 612.9 A 49.53 49.53 0 0 0 55.72 563.37" fill="#0c1f70"/><path d="M 439.55 563.37 A 49.53 49.53 0 0 1  489.08000000000004 612.9 L 439.55 563.37 A 49.53 49.53 0 0 0 489.08000000000004 612.9" fill="#e8305c"/><path d="M 687.19 563.37 A 49.53 49.53 0 0 1  736.72 612.9 L 687.19 563.37 A 49.53 49.53 0 0 0 736.72 612.9" fill="#f93462"/><path d="M 749.1 563.37 A 49.53 49.53 0 0 1  798.63 612.9 L 749.1 563.37 A 49.53 49.53 0 0 0 798.63 612.9" fill="#450e1b"/><rect x="811.0090909090909" y="563.3727272727273" width="49.527272727272724" height="49.527272727272724" fill="#000000"/><path d="M 811.01 588.13 A 24.76 24.76 0 0 1  835.77 563.37 L 811.01 588.13 A 24.76 24.76 0 0 0 835.77 563.37" fill="#d92d56"/><rect x="934.8272727272728" y="563.3727272727273" width="49.527272727272724" height="49.527272727272724" fill="#000000"/><path d="M 934.83 588.14 A 24.76 24.76 0 0 1  959.59 612.9 L 934.83 588.14 A 24.76 24.76 0 0 0 959.59 612.9" fill="#cc2a51"/><rect x="6.190909090909091" y="625.2818181818182" width="49.527272727272724" height="49.527272727272724" fill="#000000"/><path d="M 6.19 650.04 A 24.76 24.76 0 0 1  30.950000000000003 625.28 L 6.19 650.04 A 24.76 24.76 0 0 0 30.950000000000003 625.28" fill="#1433b8"/><path d="M 6.19 674.81 A 24.76 24.76 0 0 1  30.950000000000003 650.05 L 6.19 674.81 A 24.76 24.76 0 0 0 30.950000000000003 650.05" fill="#541121"/><path d="M 30.95 650.05 A 24.76 24.76 0 0 1  55.71 674.81 L 30.95 650.05 A 24.76 24.76 0 0 0 55.71 674.81" fill="#280810"/><rect x="130.0090909090909" y="625.2818181818182" width="49.527272727272724" height="49.527272727272724" fill="#000000"/><path d="M 154.77 625.28 A 24.76 24.76 0 0 1  179.53 650.04 L 154.77 625.28 A 24.76 24.76 0 0 0 179.53 650.04" fill="#122ea4"/><rect x="253.8272727272727" y="625.2818181818182" width="49.527272727272724" height="49.527272727272724" fill="#000000"/><path d="M 278.59 625.28 A 24.76 24.76 0 0 1  303.34999999999997 650.04 L 278.59 625.28 A 24.76 24.76 0 0 0 303.34999999999997 650.04" fill="#0f278b"/><rect x="315.7363636363636" y="625.2818181818182" width="49.527272727272724" height="49.527272727272724" fill="#000000"/><path d="M 340.5 650.05 A 24.76 24.76 0 0 1  365.26 674.81 L 340.5 650.05 A 24.76 24.76 0 0 0 365.26 674.81" fill="#0a1a5d"/><path d="M 377.65 674.81 A 49.53 49.53 0 0 1  427.17999999999995 625.28 L 377.65 674.81 A 49.53 49.53 0 0 0 427.17999999999995 625.28" fill="#951f3b"/><path d="M 749.1 674.81 A 49.53 49.53 0 0 1  798.63 625.28 L 749.1 674.81 A 49.53 49.53 0 0 0 798.63 625.28" fill="#af2445"/><path d="M 811.01 674.81 A 49.53 49.53 0 0 1  860.54 625.28 L 811.01 674.81 A 49.53 49.53 0 0 0 860.54 625.28" fill="#03091f"/><rect x="934.8272727272728" y="625.2818181818182" width="49.527272727272724" height="49.527272727272724" fill="#000000"/><path d="M 996.74 625.28 A 49.53 49.53 0 0 1  1046.27 674.81 L 996.74 625.28 A 49.53 49.53 0 0 0 1046.27 674.81" fill="#541121"/></g></svg>